<?xml version="1.0" encoding="utf-8"?>
<svg width="3231px" height="1192px" viewBox="0 0 3231 1192" version="1.1" xmlns:xlink="http://www.w3.org/1999/xlink" xmlns="http://www.w3.org/2000/svg">
  <defs>
    <radialGradient gradientUnits="objectBoundingBox" cx="13.658257%" cy="79.36986%" fx="13.658257%" fy="79.36986%" r="136.43062%" gradientTransform="translate(0.13658257,0.79369855),scale(1,0.751371),rotate(-50.738495),scale(1,1.4067602),translate(-0.13658257,-0.79369855)" id="gradient_1">
      <stop offset="0%" stop-color="#FF00B7" />
      <stop offset="60.861023%" stop-color="#FEC2F7" />
      <stop offset="100%" stop-color="#5BF2B1" />
    </radialGradient>
    <radialGradient gradientUnits="objectBoundingBox" cx="50.00028%" cy="10.9394045%" fx="50.00028%" fy="10.9394045%" r="94.55052%" gradientTransform="translate(0.5000028,0.10939404),scale(1,0.94194305),scale(1,1.061635),translate(-0.5000028,-0.10939404)" id="gradient_2">
      <stop offset="0%" stop-color="#FF00B7" />
      <stop offset="60.861023%" stop-color="#FEC2F7" />
      <stop offset="100%" stop-color="#5BF2B1" />
    </radialGradient>
    <filter id="filter_1">
      <feColorMatrix in="SourceGraphic" type="matrix" values="0 0 0 0 0.24705882 0 0 0 0 0.31764707 0 0 0 0 0.70980394 0 0 0 1 0" color-interpolation-filters="sRGB" />
    </filter>
    <path d="M0 0L680 0L680 680L0 680L0 0Z" id="path_1" />
    <rect width="3231" height="1192" id="artboard_1" />
    <clipPath id="clip_1">
      <use xlink:href="#artboard_1" clip-rule="evenodd" />
    </clipPath>
    <clipPath id="mask_1">
      <use xlink:href="#path_1" />
    </clipPath>
  </defs>
  <g id="Artboard" clip-path="url(#clip_1)">
    <use xlink:href="#artboard_1" stroke="none" fill="#0D1117" />
    <g id="Artboard" transform="translate(1281 0)" artboard="32f25b7e-5b01-4462-a8ea-7fc4ccd38db8">
      <g id="Mask-Group">
        <path d="M0 0L680 0L680 680L0 680L0 0Z" id="artboard_1" fill="none" fill-rule="evenodd" stroke="none" />
        <g clip-path="url(#mask_1)">
          <g id="Artboard" transform="translate(48.14703 104.30953)">
            <path d="M0 5.47816C0 5.47816 99.4204 62.8722 105.446 96.0997C120.51 153.494 -15.4403 322.656 75.3188 413.276C120.531 458.421 188.266 459.557 256.084 459.533L256.084 392.131L185.085 349.165C185.085 349.165 142.883 322.639 151.922 271.193C160.961 219.746 256.084 322.656 256.084 322.656C256.084 322.656 212.347 63.4155 148.326 24.0605C84.3054 -15.2945 0 5.47816 0 5.47816L0 5.47816Z" id="Vector" fill="#5761EB" fill-rule="evenodd" stroke="#5761EB" stroke-width="1" />
            <path d="M356.024 198.521C281.969 308.821 256.993 421.987 300.241 451.284C343.485 480.586 438.577 414.921 512.632 304.622C586.684 194.321 611.66 81.1543 568.416 51.8555C525.168 22.5574 430.077 88.2212 356.024 198.521L356.024 198.521Z" id="Oval-2" fill="url(#gradient_1)" fill-rule="evenodd" stroke="none" />
            <g id="Group-4" transform="translate(135.57457 186.72148)">
              <g id="Group-3">
                <path d="M0 143.484C0 64.2402 64.0706 0 143.106 0C222.141 0 286.212 64.2402 286.212 143.484C286.212 222.728 222.141 286.969 143.106 286.969C64.0706 286.969 0 222.728 0 143.484L0 143.484Z" id="Oval" fill="#EB67DC" fill-rule="evenodd" stroke="none" />
                <g id="Group-2" transform="translate(36.27941 80.85198)">
                  <path d="M62.4508 27.7764L62.426 7.89832L0.0258102 60.2636C0.115147 66.4462 -0.0635528 73.5709 0.0257843 79.7535L62.426 132.119L62.3757 112.06L11.1589 70.0951L62.4508 27.7764L62.4508 27.7764ZM157.248 27.7764L157.273 7.89832L219.673 60.2636C219.584 66.4462 219.763 73.5709 219.673 79.7535L157.273 132.119L157.323 112.06L208.54 70.0951L157.248 27.7764L157.248 27.7764Z" id="Group" fill="#3F51B5" fill-rule="evenodd" stroke="none" />
                  <g id="Group#1" transform="translate(134.18555 0)">
                    <g id="Group#2" filter="url(#filter_1)">
                      <g id="Group">
                        <path d="M0 3.4L17.0744 3.4" id="Line" fill="none" fill-rule="evenodd" stroke="#FFFFFF" stroke-width="0.86345184" />
                      </g>
                    </g>
                  </g>
                </g>
              </g>
              <g id="Group" transform="translate(120.50989 60.414623)">
                <path d="M52.7235 0L0 173.692" id="Vector-2" fill="none" fill-rule="evenodd" stroke="#92FFE7" stroke-width="14" />
              </g>
            </g>
            <path d="M165.7 232.032L396.179 232.032L396.179 458.586L165.7 458.586L165.7 232.032L165.7 232.032Z" id="code-break" fill="#FFFFFF" fill-opacity="0" fill-rule="evenodd" stroke="none" />
            <path d="M69.2293 28.8504C69.2293 20.7323 75.4285 14.1512 83.0751 14.1512C90.7221 14.1512 96.9213 20.7323 96.9213 28.8504C96.9213 36.9686 90.7221 43.55 83.0751 43.55C75.4285 43.55 69.2293 36.9686 69.2293 28.8504L69.2293 28.8504Z" id="Oval#1" fill="url(#gradient_2)" fill-rule="evenodd" stroke="none" />
          </g>
        </g>
      </g>
    </g>
    <g id="devGram" fill="#FFFFFF" transform="translate(1464 638)" artboard="9df962c8-bb2a-4cb7-a4b0-4bddc28b27fd">
      <path d="M3.096 59.256Q3.096 53.208 5.544 48.636Q7.992 44.064 12.276 41.544Q16.56 39.024 21.888 39.024Q26.496 39.024 30.456 41.148Q34.416 43.272 36.504 46.728L36.504 25.848L43.128 25.848L43.128 79.128L36.504 79.128L36.504 71.712Q34.56 75.24 30.744 77.508Q26.928 79.776 21.816 79.776Q16.56 79.776 12.276 77.184Q7.992 74.592 5.544 69.912Q3.096 65.232 3.096 59.256ZM177.264 43.488Q175.176 39.096 171.216 36.684Q167.256 34.272 162 34.272Q156.744 34.272 152.532 36.684Q148.32 39.096 145.908 43.596Q143.496 48.096 143.496 54Q143.496 59.904 145.908 64.368Q148.32 68.832 152.532 71.244Q156.744 73.656 162 73.656Q169.344 73.656 174.096 69.264Q178.848 64.872 179.64 57.384L159.624 57.384L159.624 52.056L186.624 52.056L186.624 57.096Q186.048 63.288 182.736 68.436Q179.424 73.584 174.024 76.572Q168.624 79.56 162 79.56Q155.016 79.56 149.256 76.284Q143.496 73.008 140.148 67.176Q136.8 61.344 136.8 54Q136.8 46.656 140.148 40.788Q143.496 34.92 149.256 31.644Q155.016 28.368 162 28.368Q169.992 28.368 176.148 32.328Q182.304 36.288 185.112 43.488L177.264 43.488ZM206.748 40.824Q203.544 42.696 201.816 46.08L201.816 39.672L195.264 39.672L195.264 79.128L201.816 79.128L201.816 57.672Q201.816 45.72 212.832 45.72L214.56 45.72L214.56 38.952Q209.952 38.952 206.748 40.824ZM326.448 40.86Q322.848 38.952 318.24 38.952Q313.56 38.952 309.744 41.256Q305.928 43.56 304.272 47.736Q302.4 43.416 298.584 41.184Q294.768 38.952 289.8 38.952Q285.84 38.952 282.564 40.608Q279.288 42.264 277.344 45.36L277.344 39.672L270.792 39.672L270.792 79.128L277.344 79.128L277.344 57.384Q277.344 51.192 280.368 47.916Q283.392 44.64 288.504 44.64Q293.472 44.64 296.388 47.772Q299.304 50.904 299.304 56.808L299.304 79.128L305.784 79.128L305.784 57.384Q305.784 51.192 308.808 47.916Q311.832 44.64 316.944 44.64Q321.912 44.64 324.828 47.772Q327.744 50.904 327.744 56.808L327.744 79.128L334.224 79.128L334.224 55.872Q334.224 50.4 332.136 46.584Q330.048 42.768 326.448 40.86ZM90.216 57.888Q90.216 59.76 90 61.848L58.464 61.848Q58.824 67.68 62.46 70.956Q66.096 74.232 71.28 74.232Q75.528 74.232 78.372 72.252Q81.216 70.272 82.368 66.96L89.424 66.96Q87.84 72.648 83.088 76.212Q78.336 79.776 71.28 79.776Q65.664 79.776 61.236 77.256Q56.808 74.736 54.288 70.092Q51.768 65.448 51.768 59.328Q51.768 53.208 54.216 48.6Q56.664 43.992 61.092 41.508Q65.52 39.024 71.28 39.024Q76.896 39.024 81.216 41.472Q85.536 43.92 87.876 48.204Q90.216 52.488 90.216 57.888ZM219.672 59.256Q219.672 53.208 222.12 48.636Q224.568 44.064 228.852 41.544Q233.136 39.024 238.392 39.024Q243.576 39.024 247.392 41.256Q251.208 43.488 253.08 46.872L253.08 39.672L259.704 39.672L259.704 79.128L253.08 79.128L253.08 71.784Q251.136 75.24 247.284 77.508Q243.432 79.776 238.32 79.776Q233.064 79.776 228.816 77.184Q224.568 74.592 222.12 69.912Q219.672 65.232 219.672 59.256ZM125.784 39.672L113.544 73.08L101.232 39.672L94.176 39.672L109.656 79.128L117.288 79.128L132.768 39.672L125.784 39.672ZM83.448 56.52Q83.448 52.776 81.792 50.076Q80.136 47.376 77.292 45.972Q74.448 44.568 70.992 44.568Q66.024 44.568 62.532 47.736Q59.04 50.904 58.536 56.52L83.448 56.52ZM36.504 59.328Q36.504 54.864 34.704 51.552Q32.904 48.24 29.844 46.476Q26.784 44.712 23.112 44.712Q19.44 44.712 16.416 46.44Q13.392 48.168 11.592 51.48Q9.792 54.792 9.792 59.256Q9.792 63.792 11.592 67.14Q13.392 70.488 16.416 72.252Q19.44 74.016 23.112 74.016Q26.784 74.016 29.844 72.252Q32.904 70.488 34.704 67.14Q36.504 63.792 36.504 59.328ZM253.08 59.328Q253.08 54.864 251.28 51.552Q249.48 48.24 246.42 46.476Q243.36 44.712 239.688 44.712Q236.016 44.712 232.992 46.44Q229.968 48.168 228.168 51.48Q226.368 54.792 226.368 59.256Q226.368 63.792 228.168 67.14Q229.968 70.488 232.992 72.252Q236.016 74.016 239.688 74.016Q243.36 74.016 246.42 72.252Q249.48 70.488 251.28 67.14Q253.08 63.792 253.08 59.328Z" />
    </g>
    <g id="Focused" fill="#CD70BF" transform="translate(949 831)" artboard="8c6249ed-d2b4-4835-b577-9a6990985b5a">
      <path d="M231.04 43.232Q228.864 47.296 228.864 52.672Q228.864 57.984 231.04 62.144Q233.216 66.304 237.024 68.608Q240.832 70.912 245.504 70.912Q250.048 70.912 253.44 68.896Q256.832 66.88 258.56 63.744L258.56 70.336L264.448 70.336L264.448 22.976L258.56 22.976L258.56 41.536Q256.704 38.464 253.184 36.576Q249.664 34.688 245.568 34.688Q240.832 34.688 237.024 36.928Q233.216 39.168 231.04 43.232ZM30.144 25.728L30.144 30.464L10.752 30.464L10.752 45.504L26.496 45.504L26.496 50.24L10.752 50.24L10.752 70.336L4.928 70.336L4.928 25.728L30.144 25.728ZM52.48 70.912Q47.552 70.912 43.552 68.672Q39.552 66.432 37.28 62.304Q35.008 58.176 35.008 52.736Q35.008 47.36 37.344 43.232Q39.68 39.104 43.712 36.896Q47.744 34.688 52.736 34.688Q57.728 34.688 61.76 36.896Q65.792 39.104 68.128 43.2Q70.464 47.296 70.464 52.736Q70.464 58.176 68.064 62.304Q65.664 66.432 61.568 68.672Q57.472 70.912 52.48 70.912ZM78.144 43.232Q75.968 47.296 75.968 52.736Q75.968 58.24 78.144 62.336Q80.32 66.432 84.192 68.672Q88.064 70.912 93.056 70.912Q99.392 70.912 103.616 67.68Q107.84 64.448 109.248 59.072L102.976 59.072Q102.016 62.4 99.456 64.192Q96.896 65.984 93.056 65.984Q88.064 65.984 84.992 62.528Q81.92 59.072 81.92 52.736Q81.92 46.464 84.992 43.04Q88.064 39.616 93.056 39.616Q96.896 39.616 99.488 41.472Q102.08 43.328 102.976 46.528L109.248 46.528Q107.904 40.96 103.712 37.824Q99.52 34.688 93.056 34.688Q88.064 34.688 84.192 36.928Q80.32 39.168 78.144 43.232ZM163.136 69.536Q166.336 70.912 170.368 70.912Q174.144 70.912 177.056 69.6Q179.968 68.288 181.568 65.984Q183.168 63.68 183.168 60.8Q183.104 57.6 181.408 55.616Q179.712 53.632 177.344 52.64Q174.976 51.648 171.2 50.624Q168.192 49.792 166.496 49.12Q164.8 48.448 163.68 47.328Q162.56 46.208 162.56 44.48Q162.56 42.304 164.416 40.96Q166.272 39.616 169.408 39.616Q172.8 39.616 174.816 41.28Q176.832 42.944 177.024 45.696L182.848 45.696Q182.592 40.576 179.008 37.632Q175.424 34.688 169.6 34.688Q165.824 34.688 162.88 36Q159.936 37.312 158.336 39.552Q156.736 41.792 156.736 44.48Q156.736 47.872 158.496 49.952Q160.256 52.032 162.72 53.088Q165.184 54.144 169.088 55.168Q173.376 56.256 175.424 57.376Q177.472 58.496 177.472 60.8Q177.472 63.04 175.552 64.512Q173.632 65.984 170.304 65.984Q166.72 65.984 164.512 64.32Q162.304 62.656 162.048 60.032L156.032 60.032Q156.224 63.232 158.08 65.696Q159.936 68.16 163.136 69.536ZM223.36 51.456Q223.36 53.12 223.168 54.976L195.136 54.976Q195.456 60.16 198.688 63.072Q201.92 65.984 206.528 65.984Q210.304 65.984 212.832 64.224Q215.36 62.464 216.384 59.52L222.656 59.52Q221.248 64.576 217.024 67.744Q212.8 70.912 206.528 70.912Q201.536 70.912 197.6 68.672Q193.664 66.432 191.424 62.304Q189.184 58.176 189.184 52.736Q189.184 47.296 191.36 43.2Q193.536 39.104 197.472 36.896Q201.408 34.688 206.528 34.688Q211.52 34.688 215.36 36.864Q219.2 39.04 221.28 42.848Q223.36 46.656 223.36 51.456ZM148.096 35.264L148.096 70.336L142.272 70.336L142.272 65.152Q140.608 67.84 137.632 69.344Q134.656 70.848 131.072 70.848Q126.976 70.848 123.712 69.152Q120.448 67.456 118.56 64.064Q116.672 60.672 116.672 55.808L116.672 35.264L122.432 35.264L122.432 55.04Q122.432 60.224 125.056 63.008Q127.68 65.792 132.224 65.792Q136.896 65.792 139.584 62.912Q142.272 60.032 142.272 54.528L142.272 35.264L148.096 35.264ZM217.344 50.24Q217.344 46.912 215.872 44.512Q214.4 42.112 211.872 40.864Q209.344 39.616 206.272 39.616Q201.856 39.616 198.752 42.432Q195.648 45.248 195.2 50.24L217.344 50.24ZM52.48 65.792Q55.616 65.792 58.368 64.32Q61.12 62.848 62.816 59.904Q64.512 56.96 64.512 52.736Q64.512 48.512 62.848 45.568Q61.184 42.624 58.496 41.184Q55.808 39.744 52.672 39.744Q49.472 39.744 46.816 41.184Q44.16 42.624 42.56 45.568Q40.96 48.512 40.96 52.736Q40.96 57.024 42.528 59.968Q44.096 62.912 46.72 64.352Q49.344 65.792 52.48 65.792ZM256.96 45.824Q258.56 48.768 258.56 52.736Q258.56 56.704 256.96 59.68Q255.36 62.656 252.64 64.224Q249.92 65.792 246.656 65.792Q243.392 65.792 240.704 64.224Q238.016 62.656 236.416 59.68Q234.816 56.704 234.816 52.672Q234.816 48.704 236.416 45.76Q238.016 42.816 240.704 41.28Q243.392 39.744 246.656 39.744Q249.92 39.744 252.64 41.312Q255.36 42.88 256.96 45.824Z" />
    </g>
    <g id="Fierce" fill="#CD70BF" transform="translate(1526 831)" artboard="f226488d-e38b-4172-90c8-affe399d60d6">
      <path d="M37.376 28.416Q38.528 29.568 40.192 29.568Q41.792 29.568 42.912 28.416Q44.032 27.264 44.032 25.6Q44.032 23.936 42.912 22.784Q41.792 21.632 40.192 21.632Q38.528 21.632 37.376 22.784Q36.224 23.936 36.224 25.6Q36.224 27.264 37.376 28.416ZM30.144 30.464L30.144 25.728L4.928 25.728L4.928 70.336L10.752 70.336L10.752 50.24L26.496 50.24L26.496 45.504L10.752 45.504L10.752 30.464L30.144 30.464ZM102.816 36.288Q99.968 37.952 98.432 40.96L98.432 35.264L92.608 35.264L92.608 70.336L98.432 70.336L98.432 51.264Q98.432 40.64 108.224 40.64L109.76 40.64L109.76 34.624Q105.664 34.624 102.816 36.288ZM84.928 51.456Q84.928 53.12 84.736 54.976L56.704 54.976Q57.024 60.16 60.256 63.072Q63.488 65.984 68.096 65.984Q71.872 65.984 74.4 64.224Q76.928 62.464 77.952 59.52L84.224 59.52Q82.816 64.576 78.592 67.744Q74.368 70.912 68.096 70.912Q63.104 70.912 59.168 68.672Q55.232 66.432 52.992 62.304Q50.752 58.176 50.752 52.736Q50.752 47.296 52.928 43.2Q55.104 39.104 59.04 36.896Q62.976 34.688 68.096 34.688Q73.088 34.688 76.928 36.864Q80.768 39.04 82.848 42.848Q84.928 46.656 84.928 51.456ZM114.304 52.736Q114.304 47.296 116.48 43.232Q118.656 39.168 122.528 36.928Q126.4 34.688 131.392 34.688Q137.856 34.688 142.048 37.824Q146.24 40.96 147.584 46.528L141.312 46.528Q140.416 43.328 137.824 41.472Q135.232 39.616 131.392 39.616Q126.4 39.616 123.328 43.04Q120.256 46.464 120.256 52.736Q120.256 59.072 123.328 62.528Q126.4 65.984 131.392 65.984Q135.232 65.984 137.792 64.192Q140.352 62.4 141.312 59.072L147.584 59.072Q146.176 64.448 141.952 67.68Q137.728 70.912 131.392 70.912Q126.4 70.912 122.528 68.672Q118.656 66.432 116.48 62.336Q114.304 58.24 114.304 52.736ZM187.136 54.976Q187.328 53.12 187.328 51.456Q187.328 46.656 185.248 42.848Q183.168 39.04 179.328 36.864Q175.488 34.688 170.496 34.688Q165.376 34.688 161.44 36.896Q157.504 39.104 155.328 43.2Q153.152 47.296 153.152 52.736Q153.152 58.176 155.392 62.304Q157.632 66.432 161.568 68.672Q165.504 70.912 170.496 70.912Q176.768 70.912 180.992 67.744Q185.216 64.576 186.624 59.52L180.352 59.52Q179.328 62.464 176.8 64.224Q174.272 65.984 170.496 65.984Q165.888 65.984 162.656 63.072Q159.424 60.16 159.104 54.976L187.136 54.976ZM43.008 70.336L43.008 35.264L37.184 35.264L37.184 70.336L43.008 70.336ZM78.912 50.24Q78.912 46.912 77.44 44.512Q75.968 42.112 73.44 40.864Q70.912 39.616 67.84 39.616Q63.424 39.616 60.32 42.432Q57.216 45.248 56.768 50.24L78.912 50.24ZM179.84 44.512Q181.312 46.912 181.312 50.24L159.168 50.24Q159.616 45.248 162.72 42.432Q165.824 39.616 170.24 39.616Q173.312 39.616 175.84 40.864Q178.368 42.112 179.84 44.512Z" />
    </g>
    <g id="Disruptive" fill="#CD70BF" transform="translate(2024 831)" artboard="c5589a8f-4004-4b51-b383-03e610b45473">
      <path d="M50.368 28.416Q51.52 29.568 53.184 29.568Q54.784 29.568 55.904 28.416Q57.024 27.264 57.024 25.6Q57.024 23.936 55.904 22.784Q54.784 21.632 53.184 21.632Q51.52 21.632 50.368 22.784Q49.216 23.936 49.216 25.6Q49.216 27.264 50.368 28.416ZM230.912 28.416Q232.064 29.568 233.728 29.568Q235.328 29.568 236.448 28.416Q237.568 27.264 237.568 25.6Q237.568 23.936 236.448 22.784Q235.328 21.632 233.728 21.632Q232.064 21.632 230.912 22.784Q229.76 23.936 229.76 25.6Q229.76 27.264 230.912 28.416ZM31.456 28.448Q26.112 25.728 18.816 25.728L4.928 25.728L4.928 70.336L18.816 70.336Q26.112 70.336 31.456 67.68Q36.8 65.024 39.648 60Q42.496 54.976 42.496 48.128Q42.496 41.28 39.648 36.224Q36.8 31.168 31.456 28.448ZM214.528 40.064L214.528 60.736Q214.528 63.296 215.616 64.352Q216.704 65.408 219.392 65.408L223.68 65.408L223.68 70.336L218.432 70.336Q213.568 70.336 211.136 68.096Q208.704 65.856 208.704 60.736L208.704 40.064L204.16 40.064L204.16 35.264L208.704 35.264L208.704 26.432L214.528 26.432L214.528 35.264L223.68 35.264L223.68 40.064L214.528 40.064ZM32 60.96Q27.456 65.536 18.816 65.536L10.752 65.536L10.752 30.464L18.816 30.464Q27.392 30.464 31.968 35.136Q36.544 39.808 36.544 48.128Q36.544 56.384 32 60.96ZM109.536 36.288Q106.688 37.952 105.152 40.96L105.152 35.264L99.328 35.264L99.328 70.336L105.152 70.336L105.152 51.264Q105.152 40.64 114.944 40.64L116.48 40.64L116.48 34.624Q112.384 34.624 109.536 36.288ZM78.336 70.912Q74.304 70.912 71.104 69.536Q67.904 68.16 66.048 65.696Q64.192 63.232 64 60.032L70.016 60.032Q70.272 62.656 72.48 64.32Q74.688 65.984 78.272 65.984Q81.6 65.984 83.52 64.512Q85.44 63.04 85.44 60.8Q85.44 58.496 83.392 57.376Q81.344 56.256 77.056 55.168Q73.152 54.144 70.688 53.088Q68.224 52.032 66.464 49.952Q64.704 47.872 64.704 44.48Q64.704 41.792 66.304 39.552Q67.904 37.312 70.848 36Q73.792 34.688 77.568 34.688Q83.392 34.688 86.976 37.632Q90.56 40.576 90.816 45.696L84.992 45.696Q84.8 42.944 82.784 41.28Q80.768 39.616 77.376 39.616Q74.24 39.616 72.384 40.96Q70.528 42.304 70.528 44.48Q70.528 46.208 71.648 47.328Q72.768 48.448 74.464 49.12Q76.16 49.792 79.168 50.624Q82.944 51.648 85.312 52.64Q87.68 53.632 89.376 55.616Q91.072 57.6 91.136 60.8Q91.136 63.68 89.536 65.984Q87.936 68.288 85.024 69.6Q82.112 70.912 78.336 70.912ZM175.136 36.704Q171.712 38.72 169.984 41.728L169.984 35.264L164.16 35.264L164.16 86.976L169.984 86.976L169.984 63.872Q171.776 66.88 175.2 68.896Q178.624 70.912 183.104 70.912Q187.776 70.912 191.584 68.608Q195.392 66.304 197.568 62.144Q199.744 57.984 199.744 52.672Q199.744 47.296 197.568 43.232Q195.392 39.168 191.584 36.928Q187.776 34.688 183.104 34.688Q178.56 34.688 175.136 36.704ZM314.176 54.976Q314.368 53.12 314.368 51.456Q314.368 46.656 312.288 42.848Q310.208 39.04 306.368 36.864Q302.528 34.688 297.536 34.688Q292.416 34.688 288.48 36.896Q284.544 39.104 282.368 43.2Q280.192 47.296 280.192 52.736Q280.192 58.176 282.432 62.304Q284.672 66.432 288.608 68.672Q292.544 70.912 297.536 70.912Q303.808 70.912 308.032 67.744Q312.256 64.576 313.664 59.52L307.392 59.52Q306.368 62.464 303.84 64.224Q301.312 65.984 297.536 65.984Q292.928 65.984 289.696 63.072Q286.464 60.16 286.144 54.976L314.176 54.976ZM56 70.336L56 35.264L50.176 35.264L50.176 70.336L56 70.336ZM154.304 35.264L154.304 70.336L148.48 70.336L148.48 65.152Q146.816 67.84 143.84 69.344Q140.864 70.848 137.28 70.848Q133.184 70.848 129.92 69.152Q126.656 67.456 124.768 64.064Q122.88 60.672 122.88 55.808L122.88 35.264L128.64 35.264L128.64 55.04Q128.64 60.224 131.264 63.008Q133.888 65.792 138.432 65.792Q143.104 65.792 145.792 62.912Q148.48 60.032 148.48 54.528L148.48 35.264L154.304 35.264ZM236.544 70.336L236.544 35.264L230.72 35.264L230.72 70.336L236.544 70.336ZM259.52 64.96L270.4 35.264L276.608 35.264L262.848 70.336L256.064 70.336L242.304 35.264L248.576 35.264L259.52 64.96ZM306.88 44.512Q308.352 46.912 308.352 50.24L286.208 50.24Q286.656 45.248 289.76 42.432Q292.864 39.616 297.28 39.616Q300.352 39.616 302.88 40.864Q305.408 42.112 306.88 44.512ZM192.192 45.76Q193.792 48.704 193.792 52.672Q193.792 56.704 192.192 59.68Q190.592 62.656 187.872 64.224Q185.152 65.792 181.888 65.792Q178.688 65.792 175.968 64.224Q173.248 62.656 171.616 59.68Q169.984 56.704 169.984 52.736Q169.984 48.832 171.616 45.856Q173.248 42.88 175.968 41.312Q178.688 39.744 181.888 39.744Q185.152 39.744 187.872 41.28Q190.592 42.816 192.192 45.76Z" />
    </g>
    <path d="M887.308 879.3C887.308 871.182 893.507 864.601 901.154 864.601C908.801 864.601 915 871.182 915 879.3C915 887.419 908.801 894 901.154 894C893.507 894 887.308 887.419 887.308 879.3L887.308 879.3Z" id="Oval#1" fill="url(#gradient_2)" fill-rule="evenodd" stroke="none" artboard="6fceaf05-fdcd-4963-8f1e-110acf9a5cf8" />
    <path d="M1464.31 879.699C1464.31 871.581 1470.51 865 1478.15 865C1485.8 865 1492 871.581 1492 879.699C1492 887.817 1485.8 894.399 1478.15 894.399C1470.51 894.399 1464.31 887.817 1464.31 879.699L1464.31 879.699Z" id="Oval#1" fill="url(#gradient_2)" fill-rule="evenodd" stroke="none" artboard="78bd2a25-df14-49e1-8dd6-767bd7a36416" />
    <path d="M1961.31 879.699C1961.31 871.581 1967.51 865 1975.15 865C1982.8 865 1989 871.581 1989 879.699C1989 887.817 1982.8 894.399 1975.15 894.399C1967.51 894.399 1961.31 887.817 1961.31 879.699L1961.31 879.699Z" id="Oval#1" fill="url(#gradient_2)" fill-rule="evenodd" stroke="none" artboard="0721ddd0-6095-4487-a3e7-b9ef8210123e" />
  </g>
</svg>